<?xml version="1.0" encoding="UTF-8" standalone="no"?>
<!-- Created with Inkscape (http://www.inkscape.org/) -->

<svg
   xmlns:dc="http://purl.org/dc/elements/1.1/"
   xmlns:cc="http://creativecommons.org/ns#"
   xmlns:rdf="http://www.w3.org/1999/02/22-rdf-syntax-ns#"
   xmlns:svg="http://www.w3.org/2000/svg"
   xmlns="http://www.w3.org/2000/svg"
   xmlns:sodipodi="http://sodipodi.sourceforge.net/DTD/sodipodi-0.dtd"
   xmlns:inkscape="http://www.inkscape.org/namespaces/inkscape"
   width="167.8"
   height="44.799999"
   id="svg2"
   version="1.1"
   inkscape:version="0.48.5 r10040"
   sodipodi:docname="logo.svg">
  <defs
     id="defs4" />
  <sodipodi:namedview
     id="base"
     pagecolor="#ffffff"
     bordercolor="#666666"
     borderopacity="1.0"
     inkscape:pageopacity="0.0"
     inkscape:pageshadow="2"
     inkscape:zoom="3.959798"
     inkscape:cx="-15.197326"
     inkscape:cy="20.133375"
     inkscape:document-units="px"
     inkscape:current-layer="g3023"
     showgrid="false"
     fit-margin-top="0"
     fit-margin-left="0"
     fit-margin-right="0"
     fit-margin-bottom="0"
     inkscape:window-width="1855"
     inkscape:window-height="1056"
     inkscape:window-x="65"
     inkscape:window-y="24"
     inkscape:window-maximized="1" />
  <metadata
     id="metadata7">
    <rdf:RDF>
      <cc:Work
         rdf:about="">
        <dc:format>image/svg+xml</dc:format>
        <dc:type
           rdf:resource="http://purl.org/dc/dcmitype/StillImage" />
        <dc:title />
      </cc:Work>
    </rdf:RDF>
  </metadata>
  <g
     inkscape:label="Layer 1"
     inkscape:groupmode="layer"
     id="layer1"
     transform="translate(-57.866071,-53.718101)">
    <g
       style="font-size:40px;font-style:normal;font-weight:normal;line-height:125%;letter-spacing:0px;word-spacing:0px;fill:#000000;fill-opacity:1;stroke:none;font-family:Sans"
       id="flowRoot2985">
      <g
         id="g3023">
        <g
           id="g3019">
          <g
             id="g3016">
            <path
               inkscape:connector-curvature="0"
               id="path3011"
               d="m 80.28125,53.625 c -3.085308,4e-5 -6.005843,0.580711 -8.75,1.78125 -2.742829,1.157165 -5.130318,2.786598 -7.1875,4.84375 -2.014025,2.0569 -3.644183,4.445643 -4.84375,7.1875 -1.157812,2.701591 -1.71875,5.60268 -1.71875,8.6875 0,3.08486 0.561281,5.975136 1.71875,8.71875 1.19945,2.741619 2.829353,5.16151 4.84375,7.21875 2.057248,2.014395 4.446216,3.613191 7.1875,4.8125 2.743254,1.157317 5.664432,1.75 8.75,1.75 3.085518,0 5.955557,-0.592573 8.65625,-1.75 2.741234,-1.199309 5.130203,-2.798106 7.1875,-4.8125 1.943446,-1.943474 3.485124,-4.225908 4.625,-6.78125 1.17351,2.549849 2.69345,4.840534 4.59375,6.78125 2.05725,2.014395 4.44622,3.613191 7.1875,4.8125 2.74325,1.157317 5.66443,1.75 8.75,1.75 3.08552,0 5.95556,-0.592573 8.65625,-1.75 2.74123,-1.199309 5.1302,-2.798106 7.1875,-4.8125 1.94344,-1.943474 3.48512,-4.225908 4.625,-6.78125 1.17351,2.549849 2.69345,4.840534 4.59375,6.78125 2.05725,2.014395 4.44622,3.613191 7.1875,4.8125 2.74325,1.157317 5.66443,1.75 8.75,1.75 3.08552,0 5.95556,-0.592573 8.65625,-1.75 2.74123,-1.199309 5.1302,-2.798106 7.1875,-4.8125 1.94344,-1.943474 3.48512,-4.225908 4.625,-6.78125 1.17351,2.549849 2.69345,4.840534 4.59375,6.78125 2.05725,2.014395 4.44622,3.613191 7.1875,4.8125 2.74325,1.157317 5.66443,1.75 8.75,1.75 3.08552,0 5.95556,-0.592573 8.65625,-1.75 2.74123,-1.199309 5.1302,-2.798106 7.1875,-4.8125 2.05753,-2.057558 3.6867,-4.476194 4.84375,-7.21875 1.20041,-2.743889 1.78121,-5.633442 1.78125,-8.71875 -4e-5,-3.085269 -0.58048,-5.985628 -1.78125,-8.6875 -1.15717,-2.742789 -2.7866,-5.130278 -4.84375,-7.1875 -2.05723,-2.057151 -4.44472,-3.686585 -7.1875,-4.84375 -2.7016,-1.20066 -5.57099,-1.78121 -8.65625,-1.78125 -3.08531,4e-5 -6.00584,0.580711 -8.75,1.78125 -2.74283,1.157165 -5.13032,2.786598 -7.1875,4.84375 -1.89993,1.94037 -3.42011,4.201348 -4.59375,6.75 -1.14,-2.554132 -2.68194,-4.806867 -4.625,-6.75 -2.05723,-2.057151 -4.44472,-3.686585 -7.1875,-4.84375 -2.7016,-1.20066 -5.57099,-1.78121 -8.65625,-1.78125 -3.08531,4e-5 -6.00584,0.580711 -8.75,1.78125 -2.74283,1.157165 -5.13032,2.786598 -7.1875,4.84375 -1.89993,1.94037 -3.42011,4.201348 -4.59375,6.75 -1.14,-2.554132 -2.68194,-4.806867 -4.625,-6.75 -2.05723,-2.057151 -4.44472,-3.686585 -7.1875,-4.84375 -2.7016,-1.20066 -5.57099,-1.78121 -8.65625,-1.78125 -3.08531,4e-5 -6.00584,0.580711 -8.75,1.78125 -2.74283,1.157165 -5.13032,2.786598 -7.1875,4.84375 -1.89993,1.94037 -3.42011,4.201348 -4.59375,6.75 -1.140001,-2.554132 -2.681934,-4.806867 -4.625,-6.75 -2.057232,-2.057151 -4.444721,-3.686585 -7.1875,-4.84375 -2.701598,-1.20066 -5.570992,-1.78121 -8.65625,-1.78125 z m 0,4.65625 c 2.461491,4e-5 4.774651,0.473306 6.9375,1.40625 2.164374,0.933697 4.044082,2.200402 5.65625,3.8125 1.611623,1.611683 2.878659,3.522793 3.8125,5.6875 0.932944,2.162839 1.40621,4.476009 1.40625,6.9375 -4e-5,2.461531 -0.473306,4.774691 -1.40625,6.9375 -0.933697,2.164413 -2.200403,4.044133 -3.8125,5.65625 -1.612167,1.612137 -3.491878,2.878843 -5.65625,3.8125 -2.162848,0.932984 -4.47601,1.40625 -6.9375,1.40625 -2.46154,0 -4.806286,-0.473411 -6.96875,-1.40625 -2.164412,-0.933657 -4.044134,-2.200364 -5.65625,-3.8125 -1.612136,-1.612116 -2.878843,-3.491838 -3.8125,-5.65625 -0.932984,-2.162808 -1.40625,-4.47597 -1.40625,-6.9375 0,-2.46149 0.473266,-4.774662 1.40625,-6.9375 0.933801,-2.164706 2.200837,-4.075817 3.8125,-5.6875 1.612117,-1.612097 3.491837,-2.878803 5.65625,-3.8125 2.162465,-0.9328 4.507209,-1.40621 6.96875,-1.40625 z m 41,0 c 2.46149,4e-5 4.77465,0.473306 6.9375,1.40625 2.16437,0.933697 4.04408,2.200402 5.65625,3.8125 1.61162,1.611683 2.87866,3.522793 3.8125,5.6875 0.93294,2.162839 1.40621,4.476009 1.40625,6.9375 -4e-5,2.461531 -0.47331,4.774691 -1.40625,6.9375 -0.9337,2.164413 -2.2004,4.044133 -3.8125,5.65625 -1.61217,1.612137 -3.49188,2.878843 -5.65625,3.8125 -2.16285,0.932984 -4.47601,1.40625 -6.9375,1.40625 -2.46154,0 -4.80629,-0.473411 -6.96875,-1.40625 -2.16441,-0.933657 -4.04413,-2.200364 -5.65625,-3.8125 -1.61214,-1.612116 -2.87884,-3.491838 -3.8125,-5.65625 -0.93298,-2.162808 -1.40625,-4.47597 -1.40625,-6.9375 0,-2.46149 0.47327,-4.774662 1.40625,-6.9375 0.9338,-2.164706 2.20084,-4.075817 3.8125,-5.6875 1.61212,-1.612097 3.49184,-2.878803 5.65625,-3.8125 2.16246,-0.9328 4.50721,-1.40621 6.96875,-1.40625 z m 41,0 c 2.46149,4e-5 4.77465,0.473306 6.9375,1.40625 2.16437,0.933697 4.04408,2.200402 5.65625,3.8125 1.61162,1.611683 2.87866,3.522793 3.8125,5.6875 0.93294,2.162839 1.40621,4.476009 1.40625,6.9375 -4e-5,2.461531 -0.47331,4.774691 -1.40625,6.9375 -0.9337,2.164413 -2.2004,4.044133 -3.8125,5.65625 -1.61217,1.612137 -3.49188,2.878843 -5.65625,3.8125 -2.16285,0.932984 -4.47601,1.40625 -6.9375,1.40625 -2.46154,0 -4.80629,-0.473411 -6.96875,-1.40625 -2.16441,-0.933657 -4.04413,-2.200364 -5.65625,-3.8125 -1.61214,-1.612116 -2.87884,-3.491838 -3.8125,-5.65625 -0.93298,-2.162808 -1.40625,-4.47597 -1.40625,-6.9375 0,-2.46149 0.47327,-4.774662 1.40625,-6.9375 0.9338,-2.164706 2.20084,-4.075817 3.8125,-5.6875 1.61212,-1.612097 3.49184,-2.878803 5.65625,-3.8125 2.16246,-0.9328 4.50721,-1.40621 6.96875,-1.40625 z m 41,0 c 2.46149,4e-5 4.77465,0.473306 6.9375,1.40625 2.16437,0.933697 4.04408,2.200402 5.65625,3.8125 1.61162,1.611683 2.87866,3.522793 3.8125,5.6875 0.93294,2.162839 1.40621,4.476009 1.40625,6.9375 -4e-5,2.461531 -0.47331,4.774691 -1.40625,6.9375 -0.9337,2.164413 -2.2004,4.044133 -3.8125,5.65625 -1.61217,1.612137 -3.49188,2.878843 -5.65625,3.8125 -2.16285,0.932984 -4.47601,1.40625 -6.9375,1.40625 -2.46154,0 -4.80629,-0.473411 -6.96875,-1.40625 -2.16441,-0.933657 -4.04413,-2.200364 -5.65625,-3.8125 -1.61214,-1.612116 -2.87884,-3.491838 -3.8125,-5.65625 -0.93298,-2.162808 -1.40625,-4.47597 -1.40625,-6.9375 0,-2.46149 0.47327,-4.774662 1.40625,-6.9375 0.9338,-2.164706 2.20084,-4.075817 3.8125,-5.6875 1.61212,-1.612097 3.49184,-2.878803 5.65625,-3.8125 2.16246,-0.9328 4.50721,-1.40621 6.96875,-1.40625 z m -82,2.0625 c -2.1897,4e-5 -4.25403,0.421954 -6.1875,1.28125 -1.88826,0.815412 -3.551,1.926023 -4.96875,3.34375 -1.41777,1.417787 -2.54837,3.10103 -3.40625,5.03125 -0.81653,1.890928 -1.21876,3.935967 -1.21875,6.125 -1e-5,2.189073 0.40271,4.223556 1.21875,6.15625 0.85793,1.887485 1.98883,3.551349 3.40625,4.96875 1.41686,1.416875 3.08038,2.579162 4.96875,3.4375 1.93307,0.816196 3.99843,1.21875 6.1875,1.21875 2.18903,0 4.20321,-0.402388 6.09375,-1.21875 1.93108,-0.85827 3.61401,-2.020279 5.03125,-3.4375 1.41773,-1.417747 2.52834,-3.080499 3.34375,-4.96875 0.85913,-1.933087 1.28121,-3.966545 1.28125,-6.15625 -4e-5,-2.189665 -0.4216,-4.233669 -1.28125,-6.125 -0.81534,-1.930962 -1.92568,-3.613117 -3.34375,-5.03125 -1.41813,-1.418073 -3.10029,-2.528409 -5.03125,-3.34375 -1.89093,-0.85947 -3.90408,-1.28121 -6.09375,-1.28125 z m 82,0 c -2.1897,4e-5 -4.25403,0.421954 -6.1875,1.28125 -1.88826,0.815412 -3.551,1.926023 -4.96875,3.34375 -1.41777,1.417787 -2.54837,3.10103 -3.40625,5.03125 -0.81653,1.890928 -1.21876,3.935967 -1.21875,6.125 -1e-5,2.189073 0.40271,4.223556 1.21875,6.15625 0.85793,1.887485 1.98883,3.551349 3.40625,4.96875 1.41686,1.416875 3.08038,2.579162 4.96875,3.4375 1.93307,0.816196 3.99843,1.21875 6.1875,1.21875 2.18903,0 4.20321,-0.402388 6.09375,-1.21875 1.93108,-0.85827 3.61401,-2.020279 5.03125,-3.4375 1.41773,-1.417747 2.52834,-3.080499 3.34375,-4.96875 0.85913,-1.933087 1.28121,-3.966545 1.28125,-6.15625 -4e-5,-2.189665 -0.4216,-4.233669 -1.28125,-6.125 -0.81534,-1.930962 -1.92568,-3.613117 -3.34375,-5.03125 -1.41813,-1.418073 -3.10029,-2.528409 -5.03125,-3.34375 -1.89093,-0.85947 -3.90408,-1.28121 -6.09375,-1.28125 z m -82,4.65625 c 1.52198,3e-5 2.95977,0.314473 4.3125,0.90625 1.3531,0.592017 2.49649,1.391772 3.46875,2.40625 1.01368,0.971496 1.81399,2.146365 2.40625,3.5 0.59178,1.352735 0.90622,2.790516 0.90625,4.3125 -3e-5,1.522024 -0.31447,2.959806 -0.90625,4.3125 -0.59241,1.354014 -1.39161,2.547839 -2.40625,3.5625 -0.97241,0.972389 -2.11488,1.751434 -3.46875,2.34375 -1.35151,0.59128 -2.7891,0.87501 -4.3125,0.875 -1.52344,1e-5 -2.99283,-0.283955 -4.34375,-0.875 -1.35425,-0.592465 -2.51566,-1.37045 -3.53125,-2.34375 -0.97258,-1.014835 -1.75105,-2.207711 -2.34375,-3.5625 -0.59182,-1.352692 -0.90626,-2.790478 -0.90625,-4.3125 -1e-5,-1.521982 0.31443,-2.959767 0.90625,-4.3125 0.59255,-1.35441 1.37213,-2.528375 2.34375,-3.5 1.0154,-1.015391 2.17777,-1.814084 3.53125,-2.40625 1.35215,-0.591542 2.82173,-0.90622 4.34375,-0.90625 z m 82,0 c 1.52198,3e-5 2.95977,0.314473 4.3125,0.90625 1.3531,0.592017 2.49649,1.391772 3.46875,2.40625 1.01368,0.971496 1.81399,2.146365 2.40625,3.5 0.59178,1.352735 0.90622,2.790516 0.90625,4.3125 -3e-5,1.522024 -0.31447,2.959806 -0.90625,4.3125 -0.59241,1.354014 -1.39161,2.547839 -2.40625,3.5625 -0.97241,0.972389 -2.11488,1.751434 -3.46875,2.34375 -1.35151,0.59128 -2.7891,0.87501 -4.3125,0.875 -1.52344,1e-5 -2.99283,-0.283955 -4.34375,-0.875 -1.35425,-0.592465 -2.51566,-1.37045 -3.53125,-2.34375 -0.97258,-1.014835 -1.75105,-2.207711 -2.34375,-3.5625 -0.59182,-1.352692 -0.90626,-2.790478 -0.90625,-4.3125 -1e-5,-1.521982 0.31443,-2.959767 0.90625,-4.3125 0.59255,-1.35441 1.37213,-2.528375 2.34375,-3.5 1.0154,-1.015391 2.17777,-1.814084 3.53125,-2.40625 1.35215,-0.591542 2.82173,-0.90622 4.34375,-0.90625 z"
               style="font-size:64px;font-variant:normal;font-weight:bold;font-stretch:normal;font-family:Spheroids BRK;-inkscape-font-specification:Spheroids BRK Bold"
               sodipodi:nodetypes="ccccscccscccccscccccscccccscccccccccccccccccccccccccccccccccsssssssscccccccccsssssssccccccccccsssssssccccccccccssssssscccccscscscscsccccccccscscscscscccccccccccccscccccsscccccccccscccccsscc" />
          </g>
        </g>
        <g
           style="font-size:40px;font-style:normal;font-variant:normal;font-weight:normal;font-stretch:normal;line-height:125%;letter-spacing:0px;word-spacing:0px;fill:#000000;fill-opacity:1;stroke:none;font-family:Technique BRK;-inkscape-font-specification:Technique BRK"
           id="text3110"
           transform="matrix(1.068874,0,0,1.0360769,71.48581,-22.859018)">
          <path
             d="m 15.278999,80.619629 c 0.799973,2.8e-5 1.466639,0.266694 2,0.8 0.533304,0.53336 0.799971,1.200026 0.8,2 -2.9e-5,0.800024 -0.266696,1.46669 -0.8,2 -0.533361,0.533356 -1.200027,0.800022 -2,0.8 l -10.7999999,0 c -0.5600094,2.2e-5 -1.0266756,0.09336 -1.4,0.28 -0.3466749,0.160022 -0.6266746,0.386688 -0.84,0.68 -0.2133408,0.266688 -0.3600074,0.573354 -0.44,0.92 -0.080007,0.32002 -0.1200072,0.626686 -0.12,0.92 l 0,2.8 8.3999999,0 c 0.799984,1.7e-5 1.46665,0.266683 2,0.8 0.533315,0.533349 0.799982,1.200015 0.8,2 -1.8e-5,0.800013 -0.266685,1.466679 -0.8,2 -0.53335,0.533345 -1.200016,0.800011 -2,0.8 l -8.3999999,0 0,8.400001 c -7.2e-6,0.8 -0.2666736,1.46667 -0.79999996,2 -0.5333392,0.53333 -1.2000052,0.8 -2.00000004,0.8 -0.8000036,0 -1.4666696,-0.26667 -2,-0.8 -0.5333352,-0.53333 -0.8000016,-1.2 -0.8,-2 l 0,-16.800001 c -1.6e-6,-0.826646 0.146665,-1.733312 0.44,-2.72 0.293331,-0.986643 0.7733306,-1.893309 1.44,-2.72 0.6666626,-0.853308 1.53332836,-1.559973 2.60000004,-2.12 1.06665956,-0.559972 2.37332486,-0.839972 3.91999996,-0.84 l 10.7999999,0 0,0"
             style="font-family:Mishmash BRK;-inkscape-font-specification:Mishmash BRK"
             id="path3117"
             inkscape:connector-curvature="0"
             sodipodi:nodetypes="cccsccccccccccsccsssssssccccc" />
        </g>
        <g
           style="font-size:36.80696487px;font-style:normal;font-variant:normal;font-weight:normal;font-stretch:normal;line-height:125%;letter-spacing:0px;word-spacing:0px;fill:#000000;fill-opacity:1;stroke:none;font-family:Technique BRK;-inkscape-font-specification:Technique BRK"
           id="text3119">
          <path
             d="m 173.76755,63.11641 c 0.51527,0.196329 0.90788,0.515322 1.17782,0.956981 0.29443,0.441708 0.44166,0.920198 0.44169,1.435471 l 0,20.611901 c -3e-5,0.736141 -0.24541,1.34959 -0.73614,1.840348 -0.49079,0.49076 -1.10424,0.736139 -1.84035,0.736139 -0.73616,0 -1.34961,-0.245379 -1.84035,-0.736139 -0.49078,-0.490758 -0.73616,-1.104207 -0.73614,-1.840348 l 0,-14.42833 -5.92592,5.925921 c -0.51531,0.515308 -1.11649,0.772957 -1.80354,0.772946 -0.68708,1.1e-5 -1.28826,-0.257638 -1.80354,-0.772946 l -5.92592,-5.925921 0,14.42833 c -1e-5,0.736141 -0.24539,1.34959 -0.73614,1.840348 -0.49077,0.49076 -1.10422,0.736139 -1.84035,0.736139 -0.73614,0 -1.34959,-0.245379 -1.84035,-0.736139 -0.49076,-0.490758 -0.73614,-1.104207 -0.73614,-1.840348 l 0,-20.611901 c 0,-0.515273 0.13496,-0.993763 0.40488,-1.435471 0.29445,-0.441659 0.69933,-0.760652 1.21463,-0.956981 0.49075,-0.196278 0.98151,-0.245354 1.47228,-0.147228 0.51529,0.09818 0.9447,0.343557 1.28824,0.736139 l 8.50241,8.502409 8.50241,-8.502409 c 0.34351,-0.392582 0.76065,-0.637962 1.25143,-0.736139 0.51528,-0.09813 1.01831,-0.04905 1.50909,0.147228"
             style="font-family:Mishmash BRK;-inkscape-font-specification:Mishmash BRK"
             id="path3052" />
        </g>
      </g>
    </g>
  </g>
</svg>
