<?xml version="1.0" encoding="UTF-8" standalone="no"?>
<svg
   xmlns:dc="http://purl.org/dc/elements/1.1/"
   xmlns:cc="http://creativecommons.org/ns#"
   xmlns:rdf="http://www.w3.org/1999/02/22-rdf-syntax-ns#"
   xmlns:svg="http://www.w3.org/2000/svg"
   xmlns="http://www.w3.org/2000/svg"
   xmlns:sodipodi="http://sodipodi.sourceforge.net/DTD/sodipodi-0.dtd"
   xmlns:inkscape="http://www.inkscape.org/namespaces/inkscape"
   preserveAspectRatio="xMidYMid"
   width="199.51025"
   height="65.654999"
   viewBox="0 0 199.51025 65.654999"
   id="svg3035"
   version="1.1"
   inkscape:version="0.48.5 r10040"
   sodipodi:docname="logo.svg">
  <metadata
     id="metadata3045">
    <rdf:RDF>
      <cc:Work
         rdf:about="">
        <dc:format>image/svg+xml</dc:format>
        <dc:type
           rdf:resource="http://purl.org/dc/dcmitype/StillImage" />
        <dc:title />
      </cc:Work>
    </rdf:RDF>
  </metadata>
  <sodipodi:namedview
     pagecolor="#ffffff"
     bordercolor="#666666"
     borderopacity="1"
     objecttolerance="10"
     gridtolerance="10"
     guidetolerance="10"
     inkscape:pageopacity="0"
     inkscape:pageshadow="2"
     inkscape:window-width="1855"
     inkscape:window-height="1056"
     id="namedview3043"
     showgrid="false"
     inkscape:zoom="8.45"
     inkscape:cx="99.999"
     inkscape:cy="33"
     inkscape:window-x="65"
     inkscape:window-y="24"
     inkscape:window-maximized="1"
     inkscape:current-layer="svg3035"
     fit-margin-top="0"
     fit-margin-left="0"
     fit-margin-right="0"
     fit-margin-bottom="0" />
  <defs
     id="defs3037">
    <style
       id="style3039">
      .cls-1 {
        fill: #F3A428;
        fill-rule: evenodd;
      }
    </style>
  </defs>
  <path
     d="m 192.045,58.114 c -9.953,9.896 -26.148,9.896 -36.099,0.002 -9.954,-9.897 -9.955,-25.998 -0.001,-35.893 9.952,-9.895 26.147,-9.895 36.101,0.002 9.952,9.894 9.953,25.994 -0.001,35.889 z m -2.783,-33.122 c -8.419,-8.37 -22.116,-8.369 -30.532,-0.001 -8.419,8.369 -8.42,21.987 0,30.356 8.417,8.369 22.114,8.368 30.531,-0.001 8.417,-8.368 8.418,-21.985 0.001,-30.354 z m -6.375,26.348 c -1.392,-3.2 -4.681,-5.268 -8.382,-5.268 -3.786,0 -7.095,2.066 -8.43,5.264 -0.231,0.552 -0.768,0.886 -1.333,0.886 -0.186,0 -0.372,-0.036 -0.554,-0.11 -0.736,-0.305 -1.085,-1.145 -0.779,-1.876 1.784,-4.272 6.14,-7.033 11.096,-7.033 4.852,0 9.182,2.746 11.031,6.998 0.317,0.728 -0.02,1.572 -0.751,1.886 -0.732,0.316 -1.581,-0.02 -1.898,-0.747 z m 1.082,-15.408 c -0.664,0 -1.203,-0.536 -1.203,-1.196 0,-0.977 -0.799,-1.771 -1.78,-1.771 -0.983,0 -1.781,0.794 -1.781,1.771 0,0.66 -0.539,1.196 -1.203,1.196 -0.665,0 -1.203,-0.536 -1.203,-1.196 0,-2.295 1.878,-4.162 4.187,-4.162 2.308,0 4.186,1.866 4.186,4.162 0,0.66 -0.538,1.196 -1.203,1.196 z m -13.338,-0.013 c -0.664,0 -1.203,-0.536 -1.203,-1.196 0,-0.976 -0.798,-1.771 -1.78,-1.771 -0.983,0 -1.782,0.795 -1.782,1.771 0,0.66 -0.538,1.196 -1.203,1.196 -0.664,0 -1.203,-0.536 -1.203,-1.196 0,-2.295 1.879,-4.162 4.188,-4.162 2.308,0 4.186,1.867 4.186,4.162 0,0.66 -0.538,1.196 -1.203,1.196 z m -6.514,6.205 c 0,1.776 -1.777,1.761 -1.777,1.761 -1.733,-10e-4 -1.733,-1.912 -1.733,-1.912 0.001,-1.643 2.192,-3.604 2.192,-3.604 0.211,1.314 0.731,2.078 0.731,2.078 0.587,0.869 0.587,1.677 0.587,1.677 z M 139.081,31.726 c 0,-3.114 -0.916,-5.783 -3.079,-8.007 -2.089,-2.225 -4.496,-3.337 -7.552,-3.337 -3.507,0 -6.586,1.223 -9.344,3.67 -2.761,2.447 -5.04,5.561 -5.04,9.342 l 0,32.261 -5.003,0 0,-33.929 c 0,-3.114 -0.841,-5.783 -2.855,-8.007 -2.014,-2.225 -4.274,-3.337 -7.106,-3.337 -3.357,0 -6.363,1.298 -9.048,3.893 -2.611,2.669 -4.004,6.005 -5.005,10.009 l 0,31.371 -5.003,0 0,-47.749 5.003,0 0,8.259 c 1.001,-2.816 3.216,-5.041 5.676,-6.673 2.462,-1.705 5.079,-2.558 7.915,-2.558 3.355,0 6.301,0.89 8.837,2.669 2.61,1.855 4.288,4.19 5.034,7.007 1.416,-2.965 3.542,-5.3 6.376,-7.007 2.909,-1.779 6.078,-2.669 9.51,-2.669 4.25,0 8.029,1.446 11.087,4.338 2.982,2.892 4.599,6.377 4.599,10.454 l 0,33.929 -5.002,0 0,-33.929 z M 32.093,58.116 c -9.954,-9.897 -9.955,-25.999 0,-35.894 9.952,-9.894 26.146,-9.894 36.1,0.003 9.952,9.894 9.953,25.994 -0.001,35.889 -9.953,9.896 -26.147,9.896 -36.099,0.002 z M 65.409,24.991 c -8.419,-8.37 -22.115,-8.369 -30.533,0 -8.417,8.368 -8.419,21.987 0,30.357 8.418,8.368 22.115,8.367 30.532,-10e-4 8.417,-8.368 8.418,-21.987 0.001,-30.356 z m -4.626,6.521 c -0.07,0.012 -0.138,0.018 -0.206,0.018 -0.574,0 -1.084,-0.411 -1.184,-0.993 -0.034,-0.194 -0.383,-1.896 -2.162,-1.747 -0.672,0.054 -1.243,-0.436 -1.297,-1.094 -0.054,-0.658 0.438,-1.236 1.1,-1.29 3.203,-0.261 4.486,2.322 4.73,3.724 0.112,0.651 -0.327,1.27 -0.981,1.382 z m -3.65,-0.7 c 1.086,0 1.968,1.328 1.968,2.966 0,1.639 -0.882,2.968 -1.968,2.968 -1.087,0 -1.968,-1.329 -1.968,-2.968 0,-1.637 0.881,-2.966 1.968,-2.966 z m -6.991,25.134 c -3.405,0 -6.174,-3.185 -6.174,-7.099 0,-3.914 2.769,-7.097 6.174,-7.097 3.406,0 6.175,3.183 6.175,7.097 0,3.914 -2.769,7.099 -6.175,7.099 z m -6.538,-19.2 c -1.086,0 -1.968,-1.329 -1.968,-2.968 0,-1.637 0.882,-2.966 1.968,-2.966 1.086,0 1.968,1.328 1.968,2.966 0,1.639 -0.882,2.968 -1.968,2.968 z M 43.505,28.79 c -1.778,-0.149 -2.127,1.553 -2.161,1.747 -0.101,0.583 -0.61,0.994 -1.184,0.994 -0.068,0 -0.137,-0.006 -0.206,-0.018 C 39.3,31.4 38.86,30.782 38.973,30.131 c 0.243,-1.402 1.527,-3.986 4.73,-3.725 0.662,0.054 1.154,0.632 1.1,1.29 -0.054,0.658 -0.626,1.148 -1.298,1.094 z m -31.498,36.865 -4.003,0 0,-42.775 -8.004,0 0,-3.979 8.004,0 0,-9.196 c 0,-2.817 0.857,-4.981 2.871,-6.91 C 12.888,0.793 15.162,0 17.996,0 l 3.016,0 0,2.984 -2.903,0 c -1.642,0 -3.107,0.691 -4.226,2.026 -1.194,1.262 -1.876,2.843 -1.876,4.695 l 0,9.196 9.005,0 0,3.979 -9.005,0 0,42.775 z"
     class="cls-1"
     id="path3041"
     inkscape:connector-curvature="0"
     style="fill:#f3a428;fill-rule:evenodd" />
</svg>
