<?xml version="1.0" encoding="UTF-8" standalone="no"?>
<!-- Created with Inkscape (http://www.inkscape.org/) -->

<svg
   xmlns:dc="http://purl.org/dc/elements/1.1/"
   xmlns:cc="http://creativecommons.org/ns#"
   xmlns:rdf="http://www.w3.org/1999/02/22-rdf-syntax-ns#"
   xmlns:svg="http://www.w3.org/2000/svg"
   xmlns="http://www.w3.org/2000/svg"
   xmlns:sodipodi="http://sodipodi.sourceforge.net/DTD/sodipodi-0.dtd"
   xmlns:inkscape="http://www.inkscape.org/namespaces/inkscape"
   id="svg3086"
   version="1.1"
   inkscape:version="0.48.5 r10040"
   width="160.8575"
   height="50.000042"
   sodipodi:docname="6._fomo_-_phone_screen_-_orange.png">
  <metadata
     id="metadata3092">
    <rdf:RDF>
      <cc:Work
         rdf:about="">
        <dc:format>image/svg+xml</dc:format>
        <dc:type
           rdf:resource="http://purl.org/dc/dcmitype/StillImage" />
        <dc:title></dc:title>
      </cc:Work>
    </rdf:RDF>
  </metadata>
  <defs
     id="defs3090" />
  <sodipodi:namedview
     pagecolor="#ffffff"
     bordercolor="#666666"
     borderopacity="1"
     objecttolerance="10"
     gridtolerance="10"
     guidetolerance="10"
     inkscape:pageopacity="0"
     inkscape:pageshadow="2"
     inkscape:window-width="1855"
     inkscape:window-height="1056"
     id="namedview3088"
     showgrid="false"
     fit-margin-top="0"
     fit-margin-left="0"
     fit-margin-right="0"
     fit-margin-bottom="0"
     inkscape:zoom="2.3503831"
     inkscape:cx="237.26736"
     inkscape:cy="-43.878011"
     inkscape:window-x="65"
     inkscape:window-y="24"
     inkscape:window-maximized="1"
     inkscape:current-layer="svg3086" />
  <g
     id="g3403"
     transform="translate(0,-1086)"
     style="fill:#f3a428;fill-opacity:1">
    <path
       d="m 21.438,1096.7196 0,7.1234 -7.191223,0 0,-7.1234 c -2e-5,-0.995 -0.226157,-1.7864 -0.678422,-2.3745 -0.633202,-0.814 -1.58298,-1.2211 -2.849355,-1.2211 -1.3116145,0 -2.2387728,0.3618 -2.7815163,1.0855 -0.5427334,0.6784 -0.8141001,1.5151 -0.8141001,2.5101 l 0,21.438 10.7190004,0 0,7.1234 -10.7190004,0 0,10.719 L 0,1136 0,1096.7196 c 0,-2.6684 0.79149036,-4.9977 2.3744612,-6.9877 1.9448064,-2.4875 4.7263027,-3.7312 8.3445388,-3.7313 3.572987,10e-5 6.331893,1.2438 8.2767,3.7313 1.62818,2.0353 2.44229,4.3645 2.4423,6.9877"
       style="font-size:40px;font-style:normal;font-variant:normal;font-weight:normal;font-stretch:normal;line-height:125%;letter-spacing:0px;word-spacing:0px;fill:#f3a428;fill-opacity:1;stroke:none;font-family:False Positive BRK;-inkscape-font-specification:False Positive BRK"
       id="path3261"
       inkscape:connector-curvature="0" />
    <path
       d="m 109.19005,1096.7191 0,39.2809 -7.19131,0 0,-39.2809 c -2e-5,-0.995 -0.22617,-1.7864 -0.67843,-2.3745 -0.63323,-0.814 -1.58302,-1.2211 -2.84939,-1.2211 -1.31163,0 -2.23882,0.3618 -2.78155,1.0855 -0.54275,0.6784 -0.81412,1.5151 -0.81411,2.5101 l 0,39.2809 -7.12347,0 0,-39.2809 c -2e-5,-0.995 -0.22615,-1.7864 -0.67843,-2.3745 -0.63321,-0.814 -1.60561,-1.2211 -2.91723,-1.2211 -1.31163,0 -2.2388,0.3392 -2.78155,1.0176 -0.49752,0.6785 -0.74626,1.5378 -0.74626,2.578 l 0,39.2809 -7.19132,0 0,-39.2809 c 0,-2.6684 0.7915,-4.9977 2.37449,-6.9878 1.94483,-2.4875 4.72636,-3.7312 8.34464,-3.7313 1.53776,10e-5 2.872,0.2262 4.00272,0.6784 1.17593,0.4071 2.21618,1.0177 3.12076,1.8318 0.90454,-0.8141 1.94481,-1.4247 3.12075,-1.8318 1.17592,-0.4522 2.53277,-0.6783 4.07056,-0.6784 3.57302,10e-5 6.33196,1.2438 8.2768,3.7313 1.62819,2.0354 2.4423,4.3646 2.44233,6.9878"
       style="font-size:40px;font-style:normal;font-variant:normal;font-weight:normal;font-stretch:normal;line-height:125%;letter-spacing:0px;word-spacing:0px;fill:#f3a428;fill-opacity:1;stroke:none;font-family:False Positive BRK;-inkscape-font-specification:False Positive BRK"
       id="path3263"
       inkscape:connector-curvature="0" />
    <g
       transform="matrix(0.47143293,0,0,0.47143293,21.437529,1086.0001)"
       id="g3241"
       style="fill:#f3a428;fill-opacity:1">
      <g
         id="g3201"
         style="fill:#f3a428;fill-opacity:1">
        <path
           inkscape:connector-curvature="0"
           d="M 15.516,15.512 C -5.172,36.198 -5.17,69.858 15.518,90.547 36.2,111.231 69.858,111.231 90.544,90.543 111.231,69.858 111.229,36.201 90.546,15.519 69.858,-5.172 36.2,-5.172 15.516,15.512 z M 84.757,84.758 C 67.264,102.252 38.796,102.254 21.302,84.76 3.804,67.263 3.807,38.794 21.302,21.3 38.796,3.806 67.262,3.804 84.759,21.301 102.253,38.795 102.251,67.265 84.757,84.758 z M 39.441,45.873 c -2.258,0 -4.09,-2.777 -4.09,-6.203 0,-3.423 1.832,-6.201 4.09,-6.201 2.258,0 4.09,2.777 4.09,6.201 0,3.426 -1.832,6.203 -4.09,6.203 z M 34.744,32.895 c -0.21,1.217 -1.267,2.076 -2.461,2.076 -0.141,0 -0.284,-0.012 -0.428,-0.037 -1.36,-0.235 -2.273,-1.528 -2.039,-2.889 0.506,-2.931 3.173,-8.333 9.83,-7.786 1.376,0.113 2.399,1.32 2.286,2.696 -0.112,1.376 -1.301,2.4 -2.696,2.287 -3.696,-0.312 -4.422,3.246 -4.492,3.653 z m 36.905,6.775 c 0,3.426 -1.832,6.203 -4.091,6.203 -2.258,0 -4.09,-2.777 -4.09,-6.203 0,-3.423 1.832,-6.201 4.09,-6.201 2.259,0 4.091,2.777 4.091,6.201 z m 5.534,-7.626 c 0.234,1.361 -0.679,2.654 -2.038,2.889 -0.145,0.024 -0.287,0.037 -0.429,0.037 -1.193,0 -2.251,-0.859 -2.461,-2.076 -0.07,-0.406 -0.796,-3.963 -4.492,-3.652 -1.396,0.113 -2.584,-0.911 -2.695,-2.287 -0.113,-1.376 0.91,-2.583 2.286,-2.696 6.656,-0.547 9.323,4.854 9.829,7.785 z M 65.863,71.17 c 0,8.183 -5.755,14.84 -12.833,14.84 -7.078,0 -12.833,-6.657 -12.833,-14.84 0,-8.182 5.755,-14.835 12.833,-14.835 7.078,0 12.833,6.653 12.833,14.835 z"
           id="path3203"
           style="fill:#f3a428;fill-opacity:1" />
      </g>
      <g
         id="g3205"
         style="fill:#f3a428;fill-opacity:1" />
      <g
         id="g3207"
         style="fill:#f3a428;fill-opacity:1" />
      <g
         id="g3209"
         style="fill:#f3a428;fill-opacity:1" />
      <g
         id="g3211"
         style="fill:#f3a428;fill-opacity:1" />
      <g
         id="g3213"
         style="fill:#f3a428;fill-opacity:1" />
      <g
         id="g3215"
         style="fill:#f3a428;fill-opacity:1" />
      <g
         id="g3217"
         style="fill:#f3a428;fill-opacity:1" />
      <g
         id="g3219"
         style="fill:#f3a428;fill-opacity:1" />
      <g
         id="g3221"
         style="fill:#f3a428;fill-opacity:1" />
      <g
         id="g3223"
         style="fill:#f3a428;fill-opacity:1" />
      <g
         id="g3225"
         style="fill:#f3a428;fill-opacity:1" />
      <g
         id="g3227"
         style="fill:#f3a428;fill-opacity:1" />
      <g
         id="g3229"
         style="fill:#f3a428;fill-opacity:1" />
      <g
         id="g3231"
         style="fill:#f3a428;fill-opacity:1" />
      <g
         id="g3233"
         style="fill:#f3a428;fill-opacity:1" />
    </g>
    <g
       transform="matrix(0.47143682,0,0,0.47143682,110.8575,1086.0001)"
       id="g3384"
       style="fill:#f3a428;fill-opacity:1">
      <g
         id="g3344"
         style="fill:#f3a428;fill-opacity:1">
        <path
           inkscape:connector-curvature="0"
           d="M 90.544,90.542 C 111.231,69.857 111.229,36.2 90.546,15.518 69.858,-5.172 36.198,-5.172 15.515,15.513 -5.173,36.198 -5.171,69.858 15.517,90.547 36.198,111.23 69.858,111.23 90.544,90.542 z M 21.302,21.3 C 38.795,3.807 67.261,3.805 84.759,21.302 102.253,38.796 102.251,67.264 84.757,84.757 67.263,102.251 38.796,102.253 21.302,84.759 3.804,67.263 3.806,38.794 21.302,21.3 z m 37.555,20.371 c 0,-4.798 3.903,-8.701 8.703,-8.701 4.797,0 8.699,3.902 8.699,8.701 0,1.381 -1.119,2.5 -2.5,2.5 -1.381,0 -2.5,-1.119 -2.5,-2.5 0,-2.041 -1.66,-3.701 -3.699,-3.701 -2.044,0 -3.703,1.66 -3.703,3.701 0,1.381 -1.119,2.5 -2.5,2.5 -1.381,0 -2.5,-1.12 -2.5,-2.5 z M 31.134,41.644 c 0,-4.797 3.904,-8.701 8.703,-8.701 4.797,0 8.701,3.903 8.701,8.701 0,1.381 -1.119,2.5 -2.5,2.5 -1.381,0 -2.5,-1.119 -2.5,-2.5 0,-2.041 -1.66,-3.701 -3.701,-3.701 -2.042,0 -3.703,1.66 -3.703,3.701 0,1.381 -1.119,2.5 -2.5,2.5 -1.381,0 -2.5,-1.12 -2.5,-2.5 z m 22.955,17.727 c 10.084,0 19.084,5.742 22.927,14.63 0.658,1.521 -0.041,3.286 -1.562,3.943 -1.521,0.66 -3.285,-0.042 -3.943,-1.562 C 68.617,69.693 61.781,65.37 54.09,65.37 c -7.869,0 -14.747,4.319 -17.522,11.004 -0.48,1.154 -1.596,1.851 -2.771,1.851 -0.385,0 -0.773,-0.074 -1.15,-0.23 -1.53,-0.636 -2.256,-2.392 -1.619,-3.921 3.707,-8.931 12.76,-14.703 23.061,-14.703 z m -28.885,-2.57 c 10e-4,-3.436 4.556,-7.535 4.556,-7.535 0.438,2.747 1.52,4.344 1.52,4.344 1.218,1.818 1.218,3.507 1.218,3.507 0,3.712 -3.692,3.68 -3.692,3.68 -3.602,-0.002 -3.602,-3.996 -3.602,-3.996 z"
           id="path3346"
           style="fill:#f3a428;fill-opacity:1" />
      </g>
      <g
         id="g3348"
         style="fill:#f3a428;fill-opacity:1" />
      <g
         id="g3350"
         style="fill:#f3a428;fill-opacity:1" />
      <g
         id="g3352"
         style="fill:#f3a428;fill-opacity:1" />
      <g
         id="g3354"
         style="fill:#f3a428;fill-opacity:1" />
      <g
         id="g3356"
         style="fill:#f3a428;fill-opacity:1" />
      <g
         id="g3358"
         style="fill:#f3a428;fill-opacity:1" />
      <g
         id="g3360"
         style="fill:#f3a428;fill-opacity:1" />
      <g
         id="g3362"
         style="fill:#f3a428;fill-opacity:1" />
      <g
         id="g3364"
         style="fill:#f3a428;fill-opacity:1" />
      <g
         id="g3366"
         style="fill:#f3a428;fill-opacity:1" />
      <g
         id="g3368"
         style="fill:#f3a428;fill-opacity:1" />
      <g
         id="g3370"
         style="fill:#f3a428;fill-opacity:1" />
      <g
         id="g3372"
         style="fill:#f3a428;fill-opacity:1" />
      <g
         id="g3374"
         style="fill:#f3a428;fill-opacity:1" />
      <g
         id="g3376"
         style="fill:#f3a428;fill-opacity:1" />
    </g>
  </g>
</svg>
